<svg xmlns="http://www.w3.org/2000/svg" xmlns:xlink="http://www.w3.org/1999/xlink" aria-hidden="true" role="img" class="iconify iconify--logos" width="35.93" height="32" preserveAspectRatio="xMidYMid meet" viewBox="0 0 256 228"><defs><linearGradient id="IconifyId1813088fe1fbc01fb466" x1="-128" x2="128" y1="0" y2="0"><stop offset="0%" stop-color="#00D8FF"></stop><stop offset="100%" stop-color="#00D8FF"></stop></linearGradient></defs><path fill="url(#IconifyId1813088fe1fbc01fb466)" d="M210.483 73.824a171.49 171.49 0 0 0-8.24-2.597c.465-1.9.893-3.777 1.273-5.621c6.238-30.281 2.16-54.676-11.769-62.708c-13.355-7.7-35.196.329-57.254 19.526a171.23 171.23 0 0 0-6.375 5.848a155.866 155.866 0 0 0-4.241-3.917C100.759 3.829 77.587-4.822 64.207 3.404C50.378 11.88 46.379 35.716 52.4 65.595a170.974 170.974 0 0 0 1.892 8.48c-2.982.846-5.908 1.717-8.776 2.708C19.06 82.708 0 98.997 0 113.668c0 14.67 19.06 30.96 45.516 40.044a145.52 145.52 0 0 0 8.776 2.708 145.74 145.74 0 0 0-1.892 8.48c-6.021 29.879-2.022 53.715 11.807 62.191c13.38 8.226 36.552-.425 58.61-19.622a145.307 145.307 0 0 0 4.241-3.917 155.866 155.866 0 0 0 6.375 5.848c22.058 19.197 44.899 27.226 57.254 19.526c13.929-8.032 18.007-32.427 11.769-62.708a145.74 145.74 0 0 0-1.273-5.621c2.71-.89 5.635-1.761 8.24-2.597C236.94 144.628 256 128.338 256 113.668c0-14.671-19.06-30.96-45.517-39.844zM128.863 144.745c-17.108 0-30.977-13.869-30.977-30.977s13.869-30.977 30.977-30.977s30.977 13.869 30.977 30.977s-13.869 30.977-30.977 30.977z"></path></svg> 